<?xml version="1.0" encoding="utf-8"?>
<svg id="Motion" image-rendering="auto" baseProfile="basic" version="1.1"
    preserveAspectRatio="xMidYMid slice" x="0px" y="0px" width="375" height="812"
    xmlns="http://www.w3.org/2000/svg" viewBox="0 0 375 812">
    <defs>
        <filter id="filter3" filterUnits="objectBoundingBox" width="100%" height="100%" x="0%"
            y="0%">
            <feComponentTransfer in="SourceGraphic" result="colorTrans">
                <feFuncR type="linear" slope="0" intercept="1">
                    <animate attributeName="intercept" dur="1.5s"
                        keyTimes="0;.578;.6;.622;.644;.667;.689;.711;.733;.756;.778;.8;.822;1"
                        values="1;1;.9019607843137255;.8117647058823529;.7215686274509804;.6313725490196078;.5411764705882353;.45098039215686275;.3607843137254902;.27058823529411763;.1803921568627451;.09019607843137255;0;0"
                        fill="freeze" />
                    <animate attributeName="slope" dur="1.5s"
                        keyTimes="0;.578;.6;.622;.644;.667;.689;.711;.733;.756;.778;.8;.822;1"
                        values="0;0;.1;.19;.28;.37;.46;.55;.64;.73;.82;.91;1;1" fill="freeze" />
                </feFuncR>
                <feFuncG type="linear" slope="0" intercept="1">
                    <animate attributeName="intercept" dur="1.5s"
                        keyTimes="0;.578;.6;.622;.644;.667;.689;.711;.733;.756;.778;.8;.822;1"
                        values="1;1;.9019607843137255;.8117647058823529;.7215686274509804;.6313725490196078;.5411764705882353;.45098039215686275;.3607843137254902;.27058823529411763;.1803921568627451;.09019607843137255;0;0"
                        fill="freeze" />
                    <animate attributeName="slope" dur="1.5s"
                        keyTimes="0;.578;.6;.622;.644;.667;.689;.711;.733;.756;.778;.8;.822;1"
                        values="0;0;.1;.19;.28;.37;.46;.55;.64;.73;.82;.91;1;1" fill="freeze" />
                </feFuncG>
                <feFuncB type="linear" slope="0" intercept="1">
                    <animate attributeName="intercept" dur="1.5s"
                        keyTimes="0;.578;.6;.622;.644;.667;.689;.711;.733;.756;.778;.8;.822;1"
                        values="1;1;.9019607843137255;.8117647058823529;.7215686274509804;.6313725490196078;.5411764705882353;.45098039215686275;.3607843137254902;.27058823529411763;.1803921568627451;.09019607843137255;0;0"
                        fill="freeze" />
                    <animate attributeName="slope" dur="1.5s"
                        keyTimes="0;.578;.6;.622;.644;.667;.689;.711;.733;.756;.778;.8;.822;1"
                        values="0;0;.1;.19;.28;.37;.46;.55;.64;.73;.82;.91;1;1" fill="freeze" />
                </feFuncB>
            </feComponentTransfer>
        </filter>
    </defs>
    <g id="Scene-1r1" overflow="visible">
        <g display="none">
            <g id="Symbol-8" transform="translate(61.35 324.75)" filter="url(#filter3)" opacity="1">
                <g id="Tween-2" transform="translate(126.7 71.35)">
                    <path fill="#1BA3A7" stroke="none"
                        d="M47.55 -51.65Q47.55 -59.8 41.8 -65.55 36.05 -71.35 27.9 -71.35L-28.75 -71.35Q-36.9 -71.35 -42.65 -65.55 -48.45 -59.8 -48.45 -51.65L-48.45 5Q-48.45 13.15 -42.65 18.9 -36.9 24.65 -28.75 24.65L27.9 24.65Q36.05 24.65 41.8 18.9 47.55 13.15 47.55 5L47.55 -51.65Z" />
                    <path fill="#FFF" stroke="none"
                        d="M-26.6 -12.8Q-23.45 -13.15 -20.45 -14.3 -16.9 -15.6 -14.8 -17.45 -13.65 -18.35 -13.25 -19.5 -12.85 -20.7 -13.9 -21.45 -14.35 -21.75 -14.9 -21.9 -16.45 -22.4 -18.9 -22.2 -20.9 -22.05 -23.3 -21.4 -27.55 -20.15 -30.4 -18.1 -31.85 -17.1 -32.45 -16 -32.9 -15.2 -32.7 -14.5 -32.5 -13.75 -31.65 -13.35L-31.3 -13.2Q-30.05 -12.65 -28.25 -12.75 -27.7 -12.7 -26.6 -12.8M-33.25 -28.3Q-34.9 -27.35 -35.7 -26.3 -36.35 -25.45 -36.15 -24.75 -35.95 -24.05 -34.95 -23.7 -34.1 -23.4 -32.75 -23.4 -31.2 -23.4 -29.5 -23.8 -25.75 -24.6 -22.95 -26.55 -21.7 -27.45 -21.25 -28.45 -20.75 -29.55 -21.8 -30.2 -22.4 -30.5 -22.75 -30.55 -24.35 -30.95 -26.5 -30.6 -30.15 -30.05 -33.25 -28.3M-16.75 -40.75Q-17.4 -40.8 -18.7 -40.6 -22.1 -39.95 -24.45 -38.4 -25.55 -37.7 -26.1 -36.85 -26.75 -35.75 -25.65 -35.2L-25.1 -35Q-24 -34.65 -22.5 -34.85 -19.3 -35.15 -16.5 -36.7 -15.1 -37.5 -14.35 -38.35 -13.8 -39.05 -13.95 -39.65 -14.15 -40.3 -15 -40.55L-15.15 -40.6Q-15.7 -40.75 -16.75 -40.75M-8.45 -42.15L-7.55 -42.2Q-4.5 -42.6 -2.15 -44.2 -1.3 -44.8 -.9 -45.55 -.4 -46.6 -1.45 -47.05L-2.15 -47.3Q-3.05 -47.45 -4.35 -47.3 -7.3 -46.9 -9.5 -45.35 -10.4 -44.75 -10.75 -44 -11.25 -43.05 -10.3 -42.5 -9.6 -42.15 -8.45 -42.15M0 -10.55Q3.8 -11.05 7.55 -12.45 12.25 -14.25 15.15 -16.75 16.55 -17.9 17.25 -19.35 18.2 -21.5 16.25 -22.85 15.45 -23.4 14.55 -23.65 12.85 -24.2 10.3 -24.2 8.35 -24.2 6.45 -23.9 2.6 -23.4 -1.1 -21.95 -5.55 -20.25 -8.3 -18 -9.95 -16.6 -10.65 -15.1 -11.55 -13.1 -9.8 -11.75 -9.1 -11.2 -7.5 -10.7 -5.9 -10.3 -3.3 -10.3 -1.85 -10.3 0 -10.55M20.95 -26.1Q21.6 -26.1 22.7 -26.2 26.35 -26.75 29.5 -28.35 31.5 -29.45 32.75 -30.75 33.55 -31.65 33.8 -32.45 34.1 -33.55 33.15 -34.35 32.55 -34.8 31.85 -34.95 30.2 -35.4 28 -35.15 23.85 -34.65 20.15 -32.45 18.15 -31.25 17.25 -29.95 16.65 -29.05 16.7 -28.25 16.85 -27.1 18.05 -26.6 19 -26.2 20.95 -26.1M35.25 -43.1Q35.65 -44.25 34.65 -44.95L34.05 -45.2Q32.95 -45.65 31.25 -45.45 27.65 -45.15 24.7 -42.95 23.75 -42.15 23.3 -41.3 22.65 -39.95 24.05 -39.15 24.8 -38.8 26.3 -38.7L27.65 -38.8Q31.25 -39.25 33.85 -41.35 34.85 -42.2 35.25 -43.1M23.65 -49.65Q22.7 -50 21.55 -49.9 18.95 -49.65 16.9 -48.35 15.65 -47.65 15.15 -46.75 14.45 -45.45 15.85 -44.9 16.7 -44.65 17.4 -44.7 20.3 -44.75 22.75 -46.35 23.8 -46.95 24.25 -47.75 25.05 -49.1 23.65 -49.65M10.75 -50.2Q10.2 -50.4 9.5 -50.4 6.7 -50.25 4.6 -48.65 4.05 -48.3 3.85 -47.8 3.45 -47.05 4.2 -46.65L4.65 -46.45Q5.3 -46.3 6.1 -46.4 8.4 -46.65 10.05 -47.75 10.95 -48.35 11.2 -48.85 11.75 -49.8 10.75 -50.2Z" />
                    <path fill="#FFF" stroke="none"
                        d="M-24.45 10.85Q-24.45 8.55 -25.65 7.25 -26.9 6 -29.1 6L-32.8 6 -32.8 15.75 -29.1 15.75Q-26.9 15.75 -25.65 14.45 -24.45 13.2 -24.45 10.85M-29.3 7.7Q-26.5 7.7 -26.5 10.85 -26.5 14.1 -29.3 14.1L-30.75 14.1 -30.75 7.7 -29.3 7.7M-21.3 8.55L-23.25 8.55 -23.25 15.75 -21.3 15.75 -21.3 8.55M-22.3 5.7Q-22.7 5.7 -23.05 6 -23.35 6.3 -23.35 6.7 -23.35 7.15 -23.05 7.45 -22.7 7.75 -22.3 7.75 -21.85 7.75 -21.55 7.45 -21.25 7.15 -21.25 6.7 -21.25 6.3 -21.55 6 -21.85 5.7 -22.3 5.7M-11.75 8.55L-11.75 15.75 -9.8 15.75 -9.8 8.55 -11.75 8.55M-17.3 8.4Q-18.65 8.4 -19.45 9.4 -20.25 10.4 -20.25 12.1 -20.25 13.8 -19.45 14.8 -18.65 15.75 -17.3 15.75 -15.6 15.75 -15.1 14.45L-15.05 14.45 -15.05 15.7Q-15.05 17.1 -16.65 17.1 -17.85 17.1 -18.1 16.3L-20.05 16.3Q-19.9 17.25 -19 17.85 -18.1 18.5 -16.7 18.5 -15.05 18.5 -14.05 17.75 -13.05 16.95 -13.05 15.65L-13.05 8.55 -15 8.55 -15 9.8 -15.05 9.8Q-15.7 8.4 -17.3 8.4M-16.65 10Q-15.9 10 -15.45 10.6 -15.05 11.15 -15.05 12.15 -15.05 14.2 -16.65 14.2 -18.25 14.2 -18.25 12.15 -18.25 11.15 -17.8 10.55 -17.35 10 -16.65 10M-9.7 6.7Q-9.7 6.3 -10 6 -10.35 5.7 -10.8 5.7 -11.2 5.7 -11.55 6 -11.85 6.3 -11.85 6.7 -11.85 7.15 -11.55 7.45 -11.2 7.75 -10.8 7.75 -10.35 7.75 -10 7.45 -9.7 7.15 -9.7 6.7M.15 15.75L.15 6 -1.9 6 -1.9 10 -6.3 10 -6.3 6 -8.3 6 -8.3 15.75 -6.3 15.75 -6.3 11.65 -1.9 11.65 -1.9 15.75 .15 15.75M7.3 9.35Q6.35 8.35 4.8 8.35 3.25 8.35 2.3 9.4 1.35 10.45 1.35 12.2 1.35 13.95 2.3 14.9 3.2 15.9 4.9 15.9 6.2 15.9 7.1 15.25 8 14.6 8.2 13.55L6.4 13.55Q6.05 14.45 4.9 14.45 4.15 14.45 3.7 13.95 3.25 13.5 3.25 12.7L3.25 12.6 8.25 12.6 8.25 12Q8.25 10.35 7.3 9.35M6.35 11.4L3.3 11.4Q3.35 10.7 3.75 10.3 4.2 9.85 4.85 9.85 6.25 9.85 6.35 11.4M12.5 8.35Q11.05 8.35 10.2 9.05 9.4 9.65 9.3 10.75L11.1 10.75Q11.25 9.85 12.4 9.85 13.6 9.85 13.6 10.9L13.6 11.4 11.8 11.5Q9 11.65 9 13.7 9 14.65 9.7 15.3 10.4 15.9 11.4 15.9 13 15.9 13.6 14.65L13.65 14.65 13.65 15.75 15.55 15.75 15.55 10.8Q15.55 9.7 14.7 9.05 13.9 8.35 12.5 8.35M13.6 12.6L13.6 13.1Q13.6 13.7 13.15 14.1 12.7 14.45 12.05 14.45 10.95 14.45 10.95 13.6 10.95 12.8 12.1 12.7L13.6 12.6M18.85 6L16.85 6 16.85 15.75 18.85 15.75 18.85 6M24 10L24 8.55 22.65 8.55 22.65 6.85 20.7 6.85 20.7 8.55 19.65 8.55 19.65 10 20.7 10 20.7 13.8Q20.7 14.85 21.25 15.35 21.8 15.8 23.05 15.8L24 15.7 24 14.25 23.5 14.3Q22.65 14.3 22.65 13.45L22.65 10 24 10M31.9 11.1Q31.9 9.85 31.25 9.15 30.55 8.4 29.35 8.4 27.7 8.4 27.1 9.8L27.05 9.8 27.05 6 25.1 6 25.1 15.75 27.1 15.75 27.1 11.65Q27.1 10.95 27.5 10.45 27.9 10 28.55 10 29.9 10 29.9 11.5L29.9 15.75 31.9 15.75 31.9 11.1Z" />
                    <path fill="#000" fill-opacity=".847" stroke="none"
                        d="M-96.3 58.15Q-96.3 56.1 -97.6 55 -98.9 53.9 -101.3 53.9 -103.45 53.9 -104.85 54.85 -106.25 55.8 -106.5 57.35L-106.5 57.45 -104.05 57.45 -104.05 57.4Q-103.6 56 -101.4 56 -98.8 56 -98.8 58.15L-98.8 59.25 -102.25 59.45Q-107 59.75 -107 63.25L-107 63.3Q-107 65 -105.8 66.05 -104.6 67.05 -102.75 67.05 -100.15 67.05 -99 65.05L-98.8 65.05 -98.8 66.85 -96.3 66.85 -96.3 58.15M-98.8 62.15Q-98.8 63.4 -99.75 64.2 -100.7 65.05 -102.1 65.05 -103.15 65.05 -103.8 64.55 -104.45 64.05 -104.45 63.15 -104.45 61.4 -101.9 61.25L-98.8 61.05 -98.8 62.15M-87.6 56.05Q-84.9 56.05 -84.9 59.2L-84.9 66.85 -82.35 66.85 -82.35 58.6Q-82.35 56.35 -83.5 55.15 -84.6 53.9 -86.75 53.9 -89.5 53.9 -90.45 56.05L-90.65 56.05 -90.65 54.1 -93.2 54.1 -93.2 66.85 -90.65 66.85 -90.65 59.4Q-90.65 57.85 -89.85 56.95 -89 56.05 -87.6 56.05M-126.7 49.95L-126.7 66.85 -124.35 66.85 -124.35 54.45 -124.15 54.45 -119.2 66.85 -117.25 66.85 -112.3 54.45 -112.1 54.45 -112.1 66.85 -109.7 66.85 -109.7 49.95 -112.75 49.95 -118.1 63.45 -118.3 63.45 -123.7 49.95 -126.7 49.95M-18.1 66.85L-18.1 49.95 -20.7 49.95 -20.7 57.1 -29.35 57.1 -29.35 49.95 -32 49.95 -32 66.85 -29.35 66.85 -29.35 59.35 -20.7 59.35 -20.7 66.85 -18.1 66.85M-5.2 55.65Q-6.75 53.9 -9.4 53.9 -12.05 53.9 -13.65 55.7 -15.25 57.55 -15.25 60.5 -15.25 63.55 -13.65 65.3 -12.05 67.1 -9.3 67.1 -7.05 67.1 -5.5 65.95 -4.2 64.95 -3.85 63.55L-3.8 63.45 -6.25 63.45 -6.3 63.55Q-6.55 64.1 -7.25 64.5 -8.1 65 -9.2 65 -10.8 65 -11.7 64 -12.65 62.95 -12.7 61.15L-3.7 61.15 -3.7 60.25Q-3.7 57.35 -5.2 55.65M-7.25 56.8Q-6.35 57.7 -6.2 59.35L-12.65 59.35Q-12.5 57.75 -11.6 56.85 -10.75 55.95 -9.4 55.95 -8.05 55.95 -7.25 56.8M-69.35 58.15Q-69.35 56.1 -70.65 55 -71.95 53.9 -74.35 53.9 -76.5 53.9 -77.9 54.85 -79.3 55.8 -79.55 57.35L-79.55 57.45 -77.1 57.45 -77.1 57.4Q-76.65 56 -74.45 56 -71.85 56 -71.85 58.15L-71.85 59.25 -75.3 59.45Q-80.05 59.75 -80.05 63.25L-80.05 63.3Q-80.05 65 -78.85 66.05 -77.65 67.05 -75.8 67.05 -73.2 67.05 -72.05 65.05L-71.85 65.05 -71.85 66.85 -69.35 66.85 -69.35 58.15M-74.95 61.25L-71.85 61.05 -71.85 62.15Q-71.85 63.4 -72.8 64.2 -73.75 65.05 -75.15 65.05 -76.2 65.05 -76.85 64.55 -77.5 64.05 -77.5 63.15 -77.5 61.4 -74.95 61.25M-54.95 54.1L-57.5 54.1 -57.5 56.2 -57.65 56.2Q-58.9 53.9 -61.55 53.9 -64 53.9 -65.45 55.65 -66.9 57.35 -66.9 60.1 -66.9 62.85 -65.45 64.55 -64 66.25 -61.6 66.25 -58.9 66.25 -57.65 64.05L-57.5 64.05 -57.5 66.6Q-57.5 67.9 -58.4 68.6 -59.25 69.3 -60.85 69.3 -63.45 69.3 -63.8 67.8L-66.4 67.8Q-66.15 69.4 -64.75 70.35 -63.25 71.35 -60.85 71.35 -58.15 71.35 -56.55 70.05 -54.95 68.8 -54.95 66.6L-54.95 54.1M-58.35 57.2Q-57.45 58.3 -57.45 60.1 -57.45 61.9 -58.35 63.05 -59.3 64.15 -60.9 64.15 -62.5 64.15 -63.4 63.05 -64.3 61.95 -64.3 60.1 -64.3 58.25 -63.4 57.2 -62.5 56.05 -60.9 56.05 -59.3 56.05 -58.35 57.2M-49.9 61.15L-40.85 61.15 -40.85 60.25Q-40.85 57.4 -42.4 55.65 -43.95 53.9 -46.6 53.9 -49.25 53.9 -50.85 55.7 -52.45 57.55 -52.45 60.5 -52.45 63.55 -50.85 65.3 -49.25 67.1 -46.45 67.1 -44.2 67.1 -42.7 65.95 -41.4 64.95 -41.05 63.55L-41 63.45 -43.45 63.45 -43.5 63.55Q-43.75 64.1 -44.45 64.5 -45.3 65 -46.4 65 -48 65 -48.9 64 -49.85 62.95 -49.9 61.15M-43.4 59.35L-49.85 59.35Q-49.7 57.75 -48.8 56.85 -47.9 55.95 -46.6 55.95 -43.7 55.95 -43.4 59.35M41.85 71.25L43.8 64.35 41.05 64.35 40.05 71.25 41.85 71.25M68.75 54.1L68.75 66.85 71.3 66.85 71.3 54.1 68.75 54.1M63.2 54.35L65.75 54.35 65.75 54.2Q65.6 52.15 63.95 50.9 62.25 49.55 59.6 49.55 56.95 49.55 55.2 50.9 53.5 52.3 53.5 54.45L53.5 54.5Q53.5 58.25 58.4 59.3L60.25 59.7Q63.4 60.35 63.4 62.3L63.4 62.35Q63.4 63.5 62.35 64.25 61.3 65 59.7 65 58 65 56.9 64.3 55.8 63.6 55.7 62.45L55.65 62.35 53.1 62.35 53.1 62.5Q53.3 64.65 55 65.95 56.8 67.25 59.6 67.25 62.55 67.25 64.3 65.85 66.05 64.45 66.05 62 66.05 60.1 64.9 59 63.7 57.85 61.05 57.3L59.2 56.9Q56.15 56.2 56.15 54.35 56.15 53.15 57.15 52.5 58.05 51.8 59.6 51.8 61.1 51.8 62.1 52.5 63 53.1 63.2 54.2L63.2 54.35M3.8 53.9Q1.65 53.9 .25 54.85 -1.15 55.8 -1.4 57.35L-1.4 57.45 1.05 57.45 1.05 57.4Q1.5 56 3.7 56 6.3 56 6.3 58.15L6.3 59.25 2.85 59.45Q.6 59.6 -.65 60.6 -1.9 61.55 -1.9 63.25L-1.9 63.3Q-1.9 65 -.7 66.05 .5 67.05 2.35 67.05 4.95 67.05 6.1 65.05L6.3 65.05 6.3 66.85 8.85 66.85 8.85 58.15Q8.85 56.15 7.55 55 6.2 53.9 3.8 53.9M3.2 61.25L6.3 61.05 6.3 62.15Q6.3 63.4 5.35 64.2 4.4 65.05 3 65.05 1.95 65.05 1.3 64.55 .65 64.05 .65 63.15 .65 61.4 3.2 61.25M21.3 54.1L21.3 50.9 18.7 50.9 18.7 54.1 16.7 54.1 16.7 56.15 18.7 56.15 18.7 63.5Q18.7 65.35 19.65 66.15 20.55 66.95 22.65 66.95 22.8 66.95 24 66.8L24 64.8 23.05 64.8Q21.3 64.8 21.3 62.9L21.3 56.15 24 56.15 24 54.1 21.3 54.1M29.15 49.15L26.6 49.15 26.6 66.85 29.15 66.85 29.15 59.4Q29.15 57.85 29.95 56.95 30.75 56.05 32.15 56.05 34.9 56.05 34.9 59.2L34.9 66.85 37.45 66.85 37.45 58.6Q37.45 56.35 36.3 55.15 35.15 53.9 33.05 53.9 30.3 53.9 29.35 56.05L29.15 56.05 29.15 49.15M14.55 49.15L12.05 49.15 12.05 66.85 14.55 66.85 14.55 49.15M70.05 48.65Q69.4 48.65 68.9 49.15 68.45 49.6 68.45 50.25 68.45 50.95 68.9 51.4 69.4 51.85 70.05 51.85 70.7 51.85 71.15 51.4 71.65 50.9 71.65 50.25 71.65 49.6 71.15 49.15 70.7 48.65 70.05 48.65M92.35 58.05Q92.35 56.05 91.3 55 90.2 53.9 88.3 53.9 87 53.9 85.95 54.5 84.9 55.15 84.4 56.15L84.2 56.15Q83.3 53.9 80.7 53.9 78.15 53.9 77.2 56.1L77.05 56.1 77.05 54.1 74.5 54.1 74.5 66.85 77.05 66.85 77.05 59.05Q77.05 57.75 77.8 56.9 78.55 56.05 79.7 56.05 80.85 56.05 81.5 56.7 82.15 57.3 82.15 58.4L82.15 66.85 84.7 66.85 84.7 58.8Q84.7 57.6 85.45 56.85 86.15 56.05 87.35 56.05 89.85 56.05 89.85 58.7L89.85 66.85 92.35 66.85 92.35 58.05M107.35 60.5Q107.35 57.5 105.9 55.7 104.45 53.9 102.05 53.9 99.35 53.9 98.15 56.15L97.95 56.15 97.95 54.1 95.4 54.1 95.4 71.1 97.95 71.1 97.95 64.85 98.15 64.85Q99.3 67.05 102.05 67.05 104.5 67.05 105.9 65.3 107.35 63.55 107.35 60.5M103.85 57.25Q104.75 58.45 104.75 60.5 104.75 62.55 103.85 63.75 102.95 64.9 101.35 64.9 99.75 64.9 98.8 63.7 97.9 62.55 97.9 60.5 97.9 58.45 98.8 57.25 99.75 56.1 101.35 56.1 102.95 56.1 103.85 57.25M117.5 54.1L114.75 54.1 119.35 66.85 119.15 67.5Q118.65 69.3 116.9 69.3 116.3 69.3 116.05 69.25L116.05 71.25 117.05 71.35Q119 71.35 120.1 70.5 121.2 69.6 122 67.35L126.75 54.1 124.05 54.1 120.9 64.3 120.65 64.3 117.5 54.1M112.55 49.15L110 49.15 110 66.85 112.55 66.85 112.55 49.15Z" />
                </g>
            </g>
            <animate attributeName="display" fill="freeze" repeatCount="1" dur="1.5s"
                keyTimes="0;.578;1" values="none;inline;inline" />
        </g>
        <g id="Symbol-7" transform="translate(-384.1 528.15)" opacity="1">
            <animateTransform attributeName="transform" additive="replace" type="translate"
                dur="1.5s"
                keyTimes="0;.022;.044;.067;.089;.111;.133;.156;.178;.2;.222;.244;.267;.289;.311;.333;.356;.378;.4;.422;.444;.467;.489;.511;.533;.556;.578;.6;.622;.644;1"
                values="-200.05,712.2;-113.779,661.835;-27.403,611.314;58.926,560.802;145.256,510.451;231.632,459.988;318.062,409.412;337.779,394.401;357.529,379.152;377.302,364.102;396.945,348.845;416.71,333.675;436.383,318.441;456.208,303.401;475.82,288.148;495.549,273.073;515.436,257.933;535.028,242.782;554.803,227.648;574.424,212.325;594.196,197.32;619.946,146.22;645.746,95.12;671.546,43.97;697.296,-7.13;723.234,-58.28;749.034,-109.38;774.646,-160.392;800.446,-211.63;826.296,-262.78;826.296,-262.78"
                fill="freeze" />
            <animateTransform attributeName="transform" additive="sum" type="scale" dur="1.5s"
                keyTimes="0;.022;.044;.067;.089;.111;.133;.156;.178;.2;.222;.244;.267;.289;.311;.333;.356;.378;.4;.422;.444;1"
                values="1,1;1.056,1.056;1.112,1.112;1.168,1.168;1.225,1.225;1.281,1.281;1.337,1.337;1.439,1.439;1.54,1.54;1.642,1.642;1.744,1.744;1.845,1.845;1.947,1.947;2.049,2.049;2.15,2.15;2.252,2.252;2.354,2.354;2.455,2.455;2.557,2.557;2.659,2.659;2.76,2.76;2.76,2.76"
                fill="freeze" />
            <animateTransform attributeName="transform" additive="sum" type="translate" dur="1.5s"
                keyTimes="0;.022;.044;.067;.089;.111;.133;.156;.178;.2;.222;.244;.267;.289;.311;.333;.356;.378;.4;.422;.444;.533;.556;.578;.6;.622;1"
                values="-184.05,-184.05;-183.95,-184.2;-183.95,-184.1;-183.95,-184.1;-183.95,-184.15;-183.95,-184.15;-184.1,-184.1;-184.1,-184.15;-184.15,-184.1;-184.15,-184.15;-184.1,-184.1;-184.1,-184;-184.1,-183.95;-184.15,-184;-184.1,-183.95;-184.1,-184;-184.15,-184;-184.1,-184;-184.1,-184;-184.1,-183.95;-184.1,-184;-184.1,-184;-184.15,-184;-184.15,-184;-184.1,-184.05;-184.1,-184;-184.1,-184"
                fill="freeze" />
            <animate attributeName="opacity" dur="1.5s"
                keyTimes="0;.022;.044;.067;.089;.111;.133;.156;.178;.2;.222;.244;.267;.289;.311;.333;.356;.378;.4;.422;.444;.467;.489;.511;.533;.556;.578;.6;.622;.644;1"
                values="1;.98;.96;.95;.93;.92;.9;.89;.87;.86;.84;.82;.81;.79;.78;.76;.75;.73;.72;.7;.68;.67;.65;.64;.62;.61;.59;.58;.56;.55;.55"
                fill="freeze" />
            <path fill="#B0D0C7" stroke="none"
                d="M314.2 53.9Q260.3 0 184.05 0 107.8 0 53.9 53.9 0 107.8 0 184.05 0 260.25 53.9 314.15 107.8 368.1 184.05 368.1 260.3 368.1 314.2 314.15 368.1 260.25 368.1 184.05 368.1 107.8 314.2 53.9Z"
                opacity=".85" />
        </g>
        <g id="Symbol-6" transform="translate(-352.1 336.1)" opacity="1">
            <animateTransform attributeName="transform" additive="replace" type="translate"
                dur="1.5s"
                keyTimes="0;.022;.044;.067;.089;.111;.133;.156;.178;.2;.222;.244;.267;.289;.311;.333;.356;.378;.4;.422;.444;.467;.489;1"
                values="-220.05,468.15;-138.85,482.8;-57.6,497.45;23.6,512.1;104.85,526.8;186.05,541.45;267.3,556.1;348.5,570.8;429.75,585.45;383.082,600.095;325.183,547.542;267.102,494.724;209.211,441.956;151.274,389.142;93.332,336.325;35.393,283.53;-22.611,230.715;-80.425,177.963;-138.366,125.198;-196.305,72.384;-254.2,19.665;-312.183,-33.25;-370.074,-86.009;-370.074,-86.009"
                fill="freeze" />
            <animateTransform attributeName="transform" additive="sum" type="scale" dur="1.5s"
                keyTimes="0;.178;.2;.222;.244;.267;.289;.311;.333;.356;.378;.4;.422;.444;.467;.489;1"
                values="1,1;1,1;2.424,2.424;2.401,2.401;2.378,2.378;2.354,2.354;2.331,2.331;2.308,2.308;2.285,2.285;2.261,2.261;2.238,2.238;2.215,2.215;2.192,2.192;2.169,2.169;2.146,2.146;2.122,2.122;2.122,2.122"
                fill="freeze" />
            <animateTransform attributeName="transform" additive="sum" type="translate" dur="1.5s"
                keyTimes="0;.178;.2;.222;.244;.311;.333;.356;.378;.444;.467;.489;1"
                values="-132.05,-132.05;-132.05,-132.05;-133.2,-132.05;-133.2,-132.1;-133.1,-132.1;-133.1,-132.1;-133.1,-132;-133.05,-132;-133.1,-132;-133.1,-132;-133.1,-131.95;-133.1,-132;-133.1,-132"
                fill="freeze" />
            <animate attributeName="opacity" dur="1.5s"
                keyTimes="0;.2;.222;.244;.267;.289;.311;.333;.356;.378;.4;.422;.444;.467;.489;.511;.533;.556;.578;.6;.622;.644;1"
                values="1;1;.98;.96;.94;.93;.91;.89;.87;.86;.84;.82;.8;.79;.77;.75;.73;.72;.7;.68;.66;.65;.65"
                fill="freeze" />
            <path fill="#BAD5CD" stroke="none"
                d="M264.1 132.05Q264.1 77.35 225.4 38.65 186.75 0 132.05 0 77.35 0 38.65 38.65 0 77.35 0 132.05 0 186.75 38.65 225.4 77.35 264.1 132.05 264.1 186.75 264.1 225.4 225.4 264.1 186.75 264.1 132.05Z" />
        </g>
        <g id="Symbol-5" transform="translate(53.95 843.2)" opacity="1">
            <animateTransform attributeName="transform" additive="replace" type="translate"
                dur="1.5s"
                keyTimes="0;.022;.044;.067;.089;.111;.133;.156;.178;.2;.222;.244;.267;.289;.311;.333;.356;.378;.4;.422;.444;.467;.489;.511;.533;.556;.578;.6;.622;.644;.667;.689;.711;.733;1"
                values="343,1132.25;284.935,1046.239;226.933,960.244;168.98,874.239;110.929,788.25;52.928,702.144;-5.073,616.096;-63.078,530.152;-121.134,444.101;-101.385,367.304;-81.686,290.475;-61.986,213.675;-42.286,136.814;-22.586,60.025;-2.836,-16.775;16.864,-93.575;36.564,-170.375;56.264,-247.175;75.964,-324.025;96.414,-180.775;116.814,-37.586;137.214,105.675;157.614,248.925;178.014,392.157;198.414,535.407;218.814,678.657;239.214,821.857;259.614,965.107;280.014,1108.307;280.014,1108.307;280.014,1124.807;280.014,1141.257;280.014,1157.757;280.014,1174.368;280.014,1174.368"
                fill="freeze" />
            <animateTransform attributeName="transform" additive="sum" type="scale" dur="1.5s"
                keyTimes="0;.022;.044;.067;.089;.111;.133;.156;.178;.2;.222;1"
                values="1,1;1.021,1.021;1.043,1.043;1.064,1.064;1.086,1.086;1.107,1.107;1.129,1.129;1.15,1.15;1.172,1.172;1.193,1.193;1.214,1.214;1.214,1.214"
                fill="freeze" />
            <animateTransform attributeName="transform" additive="sum" type="translate" dur="1.5s"
                keyTimes="0;.022;.044;.067;.089;.111;.133;.156;.2;.222;.244;.267;.289;.422;.444;.467;.489;.511;.711;.733;1"
                values="-289.05,-289.05;-288.9,-289.1;-288.9,-289.15;-288.95,-289.1;-288.95,-289.2;-288.95,-289.1;-288.95,-289.1;-288.95,-289.15;-288.95,-289.15;-288.95,-289;-288.95,-289;-288.95,-288.95;-288.95,-289;-288.95,-289;-288.95,-288.95;-288.95,-289;-288.95,-289;-288.95,-289.15;-288.95,-289.15;-288.95,-289.2;-288.95,-289.2"
                fill="freeze" />
            <animate attributeName="opacity" dur="1.5s"
                keyTimes="0;.022;.044;.067;.089;.111;.133;.156;.178;.2;.222;.244;.267;.289;.311;.333;.356;.378;.4;.422;.444;.467;.489;.511;.533;.556;.578;.6;.622;.644;1"
                values="1;.98;.97;.96;.95;.93;.92;.91;.9;.88;.87;.86;.85;.83;.82;.81;.8;.78;.77;.76;.75;.73;.72;.71;.7;.68;.67;.66;.65;1;1"
                fill="freeze" />
            <path fill="#CFE3DD" stroke="none"
                d="M578.1 289.05Q578.1 169.3 493.45 84.65 408.8 0 289.05 0 169.3 0 84.65 84.65 0 169.3 0 289.05 0 408.8 84.65 493.45 169.3 578.1 289.05 578.1 408.8 578.1 493.45 493.45 578.1 408.8 578.1 289.05Z"
                opacity=".55" />
        </g>
        <g display="none" id="Layer8_0_FILL">
            <path fill="#D8D8D8" fill-opacity="0" stroke="none"
                d="M40 608.2L40 731.15 335 731.15 335 608.2 40 608.2Z" />
            <path fill="#565454" stroke="none"
                d="M252.4 716Q252.9 715.4 252.9 714.8 252.9 714.2 252.4 713.6 251.8 713.1 251.2 713.1 250.5 713.1 250 713.6 249.5 714.1 249.5 714.8 249.5 715.5 250 716 250.45 716.5 251.2 716.5 251.9 716.5 252.4 716M277.65 712.35Q277.15 712.35 276.85 712.6 276.6 712.8 276.1 713.6L276.1 712.5 275 712.5 275 719.6 276.25 719.6 276.25 715.9Q276.25 715.05 276.45 714.5 276.5 714.1 276.9 713.8 277.15 713.6 277.6 713.6 278.1 713.6 278.45 713.85L278.9 712.75Q278.3 712.35 277.65 712.35M267.75 713.3Q267.35 713.8 267.2 714.55L268.4 714.7Q268.55 713.95 269 713.65 269.4 713.35 270.25 713.35 271.1 713.35 271.6 713.75 271.95 714.05 271.95 714.8L271.95 715.1Q271.2 715.35 269.8 715.5 269.4 715.55 268.75 715.7 268.15 715.9 267.85 716.1 267.5 716.3 267.25 716.8 267 717.2 267 717.75 267 718.6 267.65 719.2 268.2 719.75 269.45 719.75 270.2 719.75 270.75 719.55 271.25 719.4 272.05 718.75 272.15 719.35 272.3 719.6L273.55 719.6Q273.35 719.25 273.25 718.75 273.15 718.15 273.15 716.65L273.1 713.9Q273.05 713.45 272.75 713.1 272.4 712.75 271.9 712.55 271.35 712.35 270.4 712.35 269.55 712.35 268.8 712.6 268.15 712.8 267.75 713.3M268.95 716.75Q269.3 716.55 270 716.5L271.95 716.05 271.95 716.5Q271.95 717.3 271.75 717.7 271.55 718.15 270.95 718.5 270.45 718.85 269.7 718.85 269.1 718.85 268.65 718.5 268.3 718.2 268.3 717.7 268.3 717.4 268.45 717.15 268.55 716.95 268.95 716.75M265.6 711.3Q265.3 710.75 264.85 710.35 264.15 709.95 263.6 709.9L258.45 709.8 258.45 719.6 259.7 719.6 259.7 715.6 262.25 715.6Q264.4 715.6 265.1 714.75 265.9 713.95 265.9 712.65 265.9 711.9 265.6 711.3M264.25 711.6Q264.6 712.15 264.6 712.7 264.6 713.55 264.05 714 263.55 714.45 262.25 714.45L259.7 714.45 259.7 710.95 263.45 711.05Q263.9 711.2 264.25 711.6M297.75 712.6Q297 712.85 296.7 713.3 296.3 713.8 296.15 714.55L297.35 714.7Q297.5 713.95 297.95 713.65 298.35 713.35 299.2 713.35 300.05 713.35 300.55 713.75 300.9 714.05 300.9 714.8L300.9 715.1Q300.15 715.35 298.75 715.5L297.65 715.7Q297.05 715.9 296.8 716.1 296.45 716.3 296.2 716.8 295.95 717.1 295.95 717.75 295.95 718.6 296.55 719.2 297.15 719.75 298.35 719.75 299.15 719.75 299.7 719.55 300.25 719.35 301 718.75 301 719.2 301.25 719.6L302.5 719.6Q302.3 719.25 302.2 718.75 302.1 718.15 302.1 716.65L302.05 713.9Q301.85 713.3 301.65 713.1 301.4 712.8 300.85 712.55 300.3 712.35 299.35 712.35 298.5 712.35 297.75 712.6M297.25 717.7Q297.25 717.4 297.4 717.15 297.5 716.9 297.85 716.75 298.2 716.55 298.9 716.5 300.2 716.3 300.9 716.05L300.9 716.5Q300.9 717.1 300.7 717.7 300.4 718.2 299.9 718.5 299.4 718.85 298.65 718.85 298.05 718.85 297.6 718.5 297.25 718.2 297.25 717.7M285.2 712.5L283.65 712.5 280.8 715.4 280.8 709.8 279.6 709.8 279.6 719.6 280.8 719.6 280.8 716.8 281.65 716 284 719.6 285.5 719.6 282.5 715.15 285.2 712.5M286.85 712.5L285.6 712.5 287.75 719.6 289 719.6 290.45 714.15 291.85 719.6 293.1 719.6 295.35 712.5 294.15 712.5 292.55 718 291.1 712.5 289.9 712.5 288.4 718.15 286.85 712.5M309.8 712.5L308.6 712.5 307.1 716.65Q306.7 717.6 306.6 718.25L304.6 712.5 303.3 712.5 306 719.6 305.9 719.9Q305.55 720.75 305.5 720.8 305.35 721.05 305.1 721.2 304.95 721.3 304.45 721.3 304.05 721.3 303.8 721.2L303.9 722.35Q304.35 722.5 304.7 722.5 305.25 722.5 305.7 722.2 306.1 721.95 306.4 721.35 306.55 721.15 307.1 719.75L309.8 712.5M171.15 714.8Q171.15 714.2 170.65 713.6 170.05 713.1 169.45 713.1 168.75 713.1 168.25 713.6 167.75 714.1 167.75 714.8 167.75 715.5 168.25 716 168.7 716.5 169.45 716.5 170.15 716.5 170.65 716 171.15 715.4 171.15 714.8M181.15 693.35L179.95 693.35 179.95 694.75 181.15 694.75 181.15 693.35M181.15 696.05L179.95 696.05 179.95 703.15 181.15 703.15 181.15 696.05M178 696.1Q178 695.3 177.55 694.55 177.1 693.85 176.25 693.55 175.5 693.2 174.3 693.2 173.35 693.2 172.5 693.5 171.6 693.95 171.3 694.5 170.85 695.2 170.85 695.9 170.85 696.5 171.2 697.1 171.65 697.75 172.25 698 172.8 698.3 174.15 698.65L175.9 699.1Q176.5 699.35 176.8 699.7 177.05 700.05 177.05 700.5 177.05 700.95 176.8 701.35 176.5 701.7 175.95 701.95 175.4 702.15 174.6 702.15 173.85 702.15 173.1 701.9 172.45 701.6 172.15 701.1 171.9 700.75 171.7 699.9L170.5 700Q170.5 700.95 171.05 701.75 171.6 702.6 172.45 702.95 173.4 703.35 174.7 703.35 175.65 703.35 176.55 702.95 177.4 702.6 177.85 701.85 178.3 701.2 178.3 700.4 178.3 699.65 177.9 699 177.5 698.4 176.65 698 176.15 697.75 174.45 697.35 172.9 697.05 172.5 696.65 172.1 696.35 172.1 695.8 172.1 695.2 172.65 694.75 173.1 694.35 174.4 694.35 175.5 694.35 176.1 694.8 176.7 695.3 176.75 696.2L178 696.1M188.35 709.8L187.15 709.8 187.15 719.6 188.35 719.6 188.35 709.8M190.75 713.35Q189.8 714.4 189.8 716.1 189.8 717.75 190.75 718.8 191.65 719.75 193.2 719.75 194.45 719.75 195.25 719.15 196.05 718.5 196.35 717.5L195.1 717.3Q194.85 718.05 194.35 718.45 193.85 718.8 193.2 718.8 192.4 718.8 191.75 718.15 191.1 717.5 191.05 716.35L196.35 716.35 196.35 716.05Q196.35 714.3 195.45 713.3 194.55 712.35 193.15 712.35 191.6 712.35 190.75 713.35M191.15 715.35Q191.15 714.5 191.75 713.9 192.3 713.35 193.15 713.35 194.1 713.35 194.65 714.05 195 714.5 195.1 715.35L191.15 715.35M184.55 710.95Q183.95 710.3 183.2 710 182.35 709.65 181.25 709.65 179.8 709.65 178.65 710.25 177.55 710.85 176.95 712.1 176.35 713.3 176.35 714.75 176.35 716.25 176.95 717.35 177.55 718.55 178.75 719.15 179.95 719.8 181.35 719.8 182.35 719.8 183.45 719.4 184.5 719 185.4 718.25L185.4 714.6 181.25 714.6 181.25 715.75 184.15 715.75 184.15 717.6Q183.85 717.85 182.95 718.3 182.15 718.6 181.3 718.6 180.35 718.6 179.45 718.2 178.6 717.8 178.15 716.85 177.7 716.05 177.7 714.65 177.7 713.55 178.05 712.7 178.3 712.05 178.7 711.75 179.05 711.3 179.7 711 180.45 710.75 181.25 710.75 181.95 710.75 182.6 711 183.25 711.25 183.55 711.7 183.9 712.1 184.1 712.85L185.25 712.55Q185.05 711.6 184.55 710.95M188.3 696.75Q188.1 696.4 187.5 696.15 187.05 695.9 186.3 695.9 184.9 695.9 184.05 697.05L184.05 696.05 182.95 696.05 182.95 703.15 184.2 703.15 184.2 699.3Q184.2 697.85 184.75 697.45 185.25 696.95 186.05 696.95 186.55 696.95 186.9 697.15 187.25 697.35 187.4 697.75 187.55 698.15 187.55 698.85L187.55 703.15 188.75 703.15 188.7 697.6Q188.5 697 188.3 696.75M195.3 696.05L195.3 696.9Q194.45 695.9 193.2 695.9 192.3 695.9 191.55 696.35 190.85 696.9 190.5 697.7 190.15 698.45 190.15 699.55 190.15 701.1 190.95 702.1 191.7 703.15 193.2 703.15 194.4 703.15 195.15 702.25 195.2 703.25 195.1 703.8 194.95 704.35 194.45 704.7 194.05 705.05 193.2 705.05 192.35 705.05 191.95 704.7 191.6 704.45 191.55 703.95L190.35 703.75Q190.35 704.9 191.15 705.5 191.95 706.05 193.2 706.05 194.2 706.05 195 705.65 195.7 705.3 196.05 704.55 196.4 703.9 196.4 702.2L196.4 696.05 195.3 696.05M193.3 696.9Q194.1 696.9 194.7 697.55 195.25 698.15 195.25 699.5 195.25 700.95 194.7 701.55 194.2 702.15 193.3 702.15 192.45 702.15 191.95 701.5 191.35 700.9 191.35 699.5 191.35 698.25 191.95 697.55 192.45 696.9 193.3 696.9M217.6 712.55Q217.05 712.35 216.1 712.35 215.25 712.35 214.5 712.6 213.8 712.8 213.4 713.3 213.05 713.7 212.9 714.55L214.05 714.7Q214.3 713.95 214.65 713.65 215.1 713.35 215.9 713.35 216.8 713.35 217.3 713.75 217.65 714.1 217.65 714.8L217.65 715.1Q216.75 715.35 215.5 715.5L214.4 715.7Q213.8 715.9 213.55 716.1 213.25 716.3 212.9 716.8 212.7 717.15 212.7 717.75 212.7 718.6 213.3 719.2 213.9 719.75 215.1 719.75 215.9 719.75 216.45 719.55 217 719.35 217.75 718.75 217.75 719.1 217.95 719.6L219.25 719.6Q218.95 719.1 218.9 718.75L218.8 713.9Q218.6 713.3 218.4 713.1 218.15 712.8 217.6 712.55M214.15 717.15Q214.25 716.9 214.6 716.75 214.95 716.55 215.65 716.5 216.95 716.3 217.65 716.05L217.65 716.5Q217.65 717.1 217.45 717.7 217.15 718.2 216.65 718.5 216.15 718.85 215.4 718.85 214.8 718.85 214.35 718.5 213.95 718.2 213.95 717.7 213.95 717.35 214.15 717.15M206 713.35Q205.05 714.4 205.05 716.1 205.05 717.85 206 718.8 206.9 719.75 208.45 719.75 209.7 719.75 210.5 719.15 211.3 718.5 211.6 717.5L210.35 717.3Q210.1 718.05 209.6 718.45 209.1 718.8 208.45 718.8 207.6 718.8 206.95 718.15 206.35 717.5 206.3 716.35L211.6 716.35 211.6 716.05Q211.6 714.3 210.7 713.3 209.8 712.35 208.4 712.35 206.85 712.35 206 713.35M206.4 715.35Q206.4 714.5 207 713.9 207.55 713.35 208.4 713.35 209.35 713.35 209.9 714.05 210.25 714.5 210.35 715.35L206.4 715.35M203.55 714.05Q203.5 713.7 203.2 713.2 202.9 712.85 202.35 712.55 201.9 712.35 201.2 712.35 199.7 712.35 198.95 713.5L198.95 712.5 197.85 712.5 197.85 719.6 199.05 719.6 199.05 715.75Q199.05 714.4 199.6 713.85 200.2 713.4 200.95 713.4 201.45 713.4 201.8 713.6 202.15 713.9 202.3 714.2L202.4 715.3 202.4 719.6 203.6 719.6 203.55 714.05M202.75 698.35L202.75 698.65Q201.95 698.9 200.6 699.05L199.55 699.25Q198.95 699.45 198.65 699.65 198.3 699.85 198.05 700.35 197.8 700.75 197.8 701.3 197.8 702.15 198.45 702.75 199 703.3 200.25 703.3 201 703.3 201.55 703.1 202.05 702.95 202.85 702.3 202.95 702.9 203.1 703.15L204.35 703.15Q204.15 702.8 204.05 702.3 203.95 701.7 203.95 700.2L203.9 697.45Q203.85 697 203.55 696.65 203.2 696.3 202.7 696.1 202.15 695.9 201.2 695.9 200.35 695.9 199.6 696.15 198.95 696.35 198.55 696.85 198.15 697.35 198 698.1L199.2 698.25Q199.35 697.5 199.8 697.2 200.2 696.9 201.05 696.9 201.9 696.9 202.4 697.3 202.75 697.6 202.75 698.35M202.75 700.05Q202.75 700.85 202.55 701.25 202.4 701.65 201.75 702.1 201.25 702.4 200.55 702.4 199.9 702.4 199.45 702.05 199.1 701.75 199.1 701.25 199.1 700.95 199.25 700.7 199.35 700.5 199.75 700.3 200.1 700.1 200.8 700.05 201.75 699.95 202.75 699.6L202.75 700.05M209 695.9Q208.4 695.9 207.8 696.15 207.25 696.5 206.95 697L206.95 696.05 205.85 696.05 205.85 705.9 207.05 705.9 207.05 702.45Q207.35 702.85 207.85 703.05 208.25 703.3 208.9 703.3 209.75 703.3 210.5 702.85 211.2 702.4 211.6 701.5 212 700.75 212 699.55 212 698.45 211.65 697.7 211.3 696.9 210.6 696.35 209.95 695.9 209 695.9M208.9 696.85Q209.7 696.85 210.2 697.5 210.8 698.2 210.8 699.55 210.8 701 210.2 701.65 209.6 702.35 208.85 702.35 208.05 702.35 207.5 701.7 206.95 701.1 206.95 699.65 206.95 698.35 207.5 697.55 208.1 696.85 208.9 696.85M216.35 695.9Q214.95 695.9 214.1 696.7 213 697.65 213 699.6 213 701.45 213.95 702.35 214.85 703.3 216.35 703.3 217.4 703.3 218.05 702.9 218.9 702.45 219.25 701.65 219.65 701 219.65 699.5 219.65 697.85 218.75 696.85 217.8 695.9 216.35 695.9M214.85 697.55Q215.45 696.9 216.35 696.9 217.25 696.9 217.85 697.55 218.45 698.25 218.45 699.55 218.45 701 217.85 701.65 217.25 702.35 216.35 702.35 215.45 702.35 214.85 701.65 214.25 701 214.25 699.6 214.25 698.25 214.85 697.55M242.8 712.6Q242.3 712.35 241.35 712.35 240.75 712.35 240.3 712.5 239.7 712.7 239.55 712.85 239.2 713.05 238.95 713.5 238.7 714 238.7 714.4 238.7 714.9 239 715.35 239.2 715.75 239.75 716 240.3 716.3 241.6 716.6 242.45 716.8 242.85 717 243.2 717.25 243.2 717.65 243.2 718.05 242.8 718.45 242.3 718.8 241.55 718.8 240.8 718.8 240.25 718.4 239.85 718.05 239.7 717.3L238.5 717.5Q238.75 718.6 239.45 719.2 240.15 719.75 241.55 719.75 242.3 719.75 243.05 719.5 243.75 719.2 244.05 718.65 244.4 718.15 244.4 717.5 244.4 716.8 244.15 716.5 243.85 716.05 243.35 715.85L240.5 715Q240.2 714.85 240.05 714.65 239.9 714.5 239.9 714.25 239.9 713.9 240.25 713.6 240.55 713.35 241.45 713.35 242.15 713.35 242.5 713.65 242.95 714 243 714.5L244.15 714.35Q244.05 713.65 243.75 713.25 243.45 712.8 242.8 712.6M229.5 709.8L228.3 709.8 228.3 719.6 229.5 719.6 229.5 709.8M226.5 712.5L225.4 712.5 225.4 713.35Q224.55 712.35 223.35 712.35 222.4 712.35 221.7 712.8 221 713.25 220.6 714.15 220.25 714.9 220.25 716 220.25 717.55 221.05 718.55 221.9 719.6 223.3 719.6 224.5 719.6 225.3 718.7L225.2 720.25Q225.05 720.85 224.6 721.15 224.2 721.5 223.3 721.5 222.45 721.5 222.05 721.15 221.7 720.9 221.65 720.35L220.5 720.2Q220.5 721.4 221.25 721.9 222 722.5 223.3 722.5 224.3 722.5 225.1 722.1 225.85 721.65 226.2 721 226.5 720.35 226.5 718.65L226.5 712.5M223.4 713.35Q224.3 713.35 224.8 714 225.4 714.7 225.4 715.95 225.4 717.3 224.85 717.95 224.25 718.6 223.45 718.6 222.55 718.6 222.05 717.95 221.5 717.3 221.5 715.95 221.5 714.7 222.05 714 222.65 713.35 223.4 713.35M231.9 713.35Q231 714.35 231 716.1 231 717.85 231.9 718.8 232.8 719.75 234.35 719.75 235.6 719.75 236.4 719.15 237.2 718.55 237.5 717.5L236.25 717.3Q236 718.05 235.5 718.45 235 718.8 234.35 718.8 233.55 718.8 232.9 718.15 232.25 717.5 232.2 716.35L237.5 716.35 237.55 716.05Q237.55 714.3 236.65 713.3 235.75 712.35 234.3 712.35 232.75 712.35 231.9 713.35M235.8 714.05Q236.15 714.5 236.25 715.35L232.3 715.35Q232.4 714.4 232.9 713.9 233.45 713.35 234.3 713.35 235.25 713.35 235.8 714.05M223.65 697.15Q224 697.15 224.5 697.4L224.95 696.3Q224.35 695.9 223.7 695.9 223.3 695.9 222.9 696.15 222.65 696.35 222.15 697.15L222.15 696.05 221.05 696.05 221.05 703.15 222.25 703.15 222.25 699.45Q222.25 698.7 222.5 698.05 222.55 697.65 222.9 697.4 223.2 697.15 223.65 697.15M230.9 696.85Q230 695.9 228.55 695.9 227.15 695.9 226.15 696.9 225.25 697.9 225.25 699.65 225.25 701.4 226.15 702.35 227.05 703.3 228.65 703.3 229.9 703.3 230.65 702.7 231.45 702.1 231.75 701.05L230.5 700.85Q230.3 701.6 229.75 702 229.25 702.35 228.65 702.35 227.75 702.35 227.15 701.7 226.6 701.15 226.5 699.9L231.8 699.9 231.8 699.6Q231.8 697.85 230.9 696.85M228.6 696.9Q229.55 696.9 230.05 697.6 230.4 698 230.55 698.95L226.55 698.95Q226.65 697.95 227.2 697.45 227.7 696.9 228.6 696.9M93.7 715.75Q93.7 714.35 94.25 713.85 94.8 713.4 95.6 713.4 96.15 713.4 96.4 713.6 96.75 713.8 96.9 714.2 97.05 714.6 97.05 715.3L97.05 719.6 98.25 719.6 98.2 714.05Q98.05 713.5 97.8 713.2 97.65 712.9 97 712.55 96.55 712.35 95.85 712.35 94.4 712.35 93.55 713.5L93.55 712.5 92.5 712.5 92.5 719.6 93.7 719.6 93.7 715.75M89.4 712.5L89.4 716.3Q89.4 717.3 89.2 717.7 88.95 718.2 88.5 718.45 88.05 718.75 87.5 718.75 87 718.75 86.6 718.45 86.25 718.25 86.1 717.7L86.05 712.5 84.85 712.5 84.9 718.05Q85.1 718.7 85.3 718.9 85.5 719.25 86.1 719.55 86.55 719.75 87.25 719.75 88.7 719.75 89.5 718.55L89.5 719.6 90.6 719.6 90.6 712.5 89.4 712.5M118.05 709.8L116.85 709.8 116.85 719.6 118.05 719.6 118.05 709.8M121.1 712.5L119.9 712.5 119.9 719.6 121.1 719.6 121.1 712.5M119.9 711.2L121.1 711.2 121.1 709.8 119.9 709.8 119.9 711.2M109.2 713.95L109.2 710.95 115 710.95 115 709.8 107.9 709.8 107.9 719.6 115.2 719.6 115.2 718.45 109.2 718.45 109.2 715.1 114.65 715.1 114.65 713.95 109.2 713.95M102.75 713.45L102.75 712.5 101.5 712.5 101.5 710 100.35 710.75 100.35 712.5 99.45 712.5 99.45 713.45 100.35 713.45 100.35 717.55Q100.35 718.55 100.45 718.95 100.55 719.25 101 719.5 101.25 719.7 102 719.7L102.9 719.6 102.75 718.55 102.2 718.6 101.8 718.5Q101.7 718.45 101.6 718.25 101.5 718.05 101.5 717.6L101.5 713.45 102.75 713.45M131.2 712.6Q130.55 712.8 130.15 713.3 129.75 713.8 129.6 714.55L130.8 714.7Q130.95 713.95 131.4 713.65 131.8 713.35 132.65 713.35 133.5 713.35 134 713.75 134.35 714.05 134.35 714.8L134.35 715.1Q133.6 715.35 132.2 715.5L131.1 715.7Q130.5 715.9 130.25 716.1 129.9 716.3 129.65 716.8 129.4 717.2 129.4 717.75 129.4 718.6 130.05 719.2 130.6 719.75 131.85 719.75 132.6 719.75 133.15 719.55 133.7 719.35 134.45 718.75 134.55 719.35 134.7 719.6L135.95 719.6Q135.75 719.25 135.65 718.75 135.55 718.15 135.55 716.65L135.5 713.9Q135.45 713.45 135.15 713.1 134.85 712.8 134.3 712.55 133.75 712.35 132.8 712.35 131.95 712.35 131.2 712.6M130.85 717.15Q131 716.9 131.35 716.75 131.7 716.55 132.4 716.5L134.35 716.05 134.35 716.5Q134.35 717.3 134.15 717.7 133.95 718.15 133.35 718.5 132.85 718.85 132.1 718.85 131.5 718.85 131.05 718.5 130.7 718.2 130.7 717.7 130.7 717.4 130.85 717.15M122.6 712.5L122.6 713.5 126.85 713.45 122.3 718.65 122.3 719.6 128.6 719.6 128.6 718.55 123.8 718.65 128.4 713.3 128.4 712.5 122.6 712.5M157.7 715.7Q157.7 714.85 157.9 714.4 158.05 714 158.55 713.65 158.95 713.4 159.55 713.4 160.3 713.4 160.65 713.8 161.05 714.15 161.05 715.1L161.05 719.6 162.25 719.6 162.25 715.1Q162.25 714 162 713.5 161.8 713 161.2 712.65 160.6 712.35 159.8 712.35 158.5 712.35 157.7 713.3L157.7 709.8 156.5 709.8 156.5 719.6 157.7 719.6 157.7 715.7M154.1 710L152.9 710.75 152.9 712.5 152 712.5 152 713.45 152.9 713.45 152.9 717.55Q152.9 718.65 153.05 718.95 153.2 719.3 153.55 719.5 153.9 719.7 154.55 719.7L155.5 719.6 155.3 718.55 154.75 718.6 154.35 718.5Q154.25 718.45 154.15 718.25L154.1 717.6 154.1 713.45 155.3 713.45 155.3 712.5 154.1 712.5 154.1 710M145.55 713.35Q144.65 714.35 144.65 716.1 144.65 717.85 145.55 718.8 146.45 719.75 148.05 719.75 149.3 719.75 150.05 719.15 150.85 718.55 151.15 717.5L149.9 717.3Q149.7 718.05 149.15 718.45 148.65 718.8 148.05 718.8 147.2 718.8 146.55 718.15 146 717.6 145.9 716.35L151.2 716.35 151.2 716.05Q151.2 714.3 150.3 713.3 149.4 712.35 147.95 712.35 146.5 712.35 145.55 713.35M145.95 715.35Q146.05 714.4 146.6 713.9 147.1 713.35 148 713.35 148.95 713.35 149.45 714.05 149.9 714.55 149.95 715.35L145.95 715.35M142.8 713.35Q142.45 712.9 141.8 712.6 141.15 712.35 140.55 712.35 139.4 712.35 138.65 713.3L138.65 709.8 137.4 709.8 137.4 719.6 138.55 719.6 138.55 718.7Q139.25 719.75 140.5 719.75 141.85 719.75 142.7 718.75 143.6 717.8 143.6 715.95 143.6 715.25 143.35 714.5 143.2 713.85 142.8 713.35M141.8 714Q142.35 714.7 142.35 716.05 142.35 717.4 141.8 718.1 141.2 718.8 140.4 718.8 139.5 718.8 138.85 717.85 138.55 717.25 138.55 716 138.55 714.7 139.1 714 139.7 713.35 140.45 713.35 141.3 713.35 141.8 714M145.05 693.35L143.75 693.35 143.75 703.15 145.05 703.15 145.05 693.35M155.05 693.35L153.75 693.35 153.75 697.4 148.65 697.4 148.65 693.35 147.35 693.35 147.35 703.15 148.65 703.15 148.65 698.55 153.75 698.55 153.75 703.15 155.05 703.15 155.05 693.35M158.55 697.4L158.55 693.35 157.25 693.35 157.25 703.15 158.55 703.15 158.55 698.55 163.65 698.55 163.65 703.15 164.95 703.15 164.95 693.35 163.65 693.35 163.65 697.4 158.55 697.4M75.3 709.8L73.55 709.8 70.85 717.75Q70.7 718 70.7 718.2L67.9 709.8 65.95 709.8 65.95 719.6 67.2 719.6 67.2 711.25 70 719.6 71.2 719.6 74.05 711.4 74.05 719.6 75.3 719.6 75.3 709.8M80.1 712.35Q78.75 712.35 77.9 713.15 76.8 714.05 76.8 716.05 76.8 717.9 77.7 718.8 78.6 719.75 80.1 719.75 81.1 719.75 81.85 719.35 82.6 718.9 83.05 718.1 83.45 717.3 83.45 715.95 83.45 714.25 82.5 713.3 81.6 712.35 80.1 712.35M78.05 716.05Q78.05 714.7 78.6 714 79.2 713.35 80.1 713.35 81 713.35 81.6 714 82.2 714.7 82.2 716 82.2 717.45 81.6 718.1 81 718.8 80.1 718.8 79.2 718.8 78.6 718.1 78.05 717.4 78.05 716.05Z" />
            <path fill="#5DBAE9" stroke="none"
                d="M187.1 624.8Q187.1 624 186.45 623.5 185.7 622.95 184.8 623.35 184.05 623.75 184.05 624.95L184.05 641.3Q183.95 641.45 183.95 641.75L183.95 644.4Q183.95 644.7 184.05 644.8L184.05 668.2Q184.15 668.95 184.75 669.35 185.5 669.85 186.3 669.35 187.1 668.85 187.1 667.9L187.1 650.05Q187.1 649.55 187.6 649.25L194.7 645.95 194.95 645.9 197.85 644.55 197.95 644.45Q198.7 643.95 199.65 643.65 199.75 643.7 199.75 644L199.75 660.3 199.8 660.7Q200.05 661.8 201 661.9 201.3 661.95 201.55 661.9 202.55 661.65 202.8 660.65L202.8 640.75Q202.55 639.9 201.8 639.65 201.1 639.35 200.3 639.75L197.95 640.9 197.85 640.85 187.55 645.7Q187.3 645.85 187.25 645.8 187.2 645.8 187.2 645.5L187.2 640.2Q187.2 639.95 187.1 639.85L187.1 624.8Z" />
            <path fill="#8BC97D" stroke="none"
                d="M181.9 641.6L181.9 620.5 181.8 620.35Q181.35 619.15 180.05 619.25 179.5 619.25 179.05 619.6 178.55 619.95 178.45 620.5L178.45 664.35Q178.55 664.9 179.05 665.3 179.6 665.7 180.15 665.65 181.5 665.5 181.85 664.4L181.9 664 181.9 646Q181.9 645.65 181.95 645.6 182.55 645.25 183.95 644.75L183.95 641.25 182 642Q181.9 642 181.9 641.6Z" />
            <path fill="#A599CA" stroke="none"
                d="M176.05 618.6Q176.05 617.2 174.65 616.85 174.5 616.8 174.35 616.85 173.7 616.9 173.3 617.4 172.9 617.85 172.9 618.5L172.95 661.85Q173.05 662.75 173.75 663.05 174.6 663.45 175.35 663 176.05 662.5 176.05 661.55L176.05 618.6Z" />
            <path fill="#8BC97E" stroke="none"
                d="M197.1 636.6Q196.45 636.35 195.75 636.65L187.1 640.35 187.1 643.55Q187.25 643.6 187.45 643.5L193.25 641.05Q194.2 640.6 194.85 640.4L194.85 642.3Q194.85 642.6 195 642.65L195.75 642.35Q197.85 641.4 198.1 641.3L198.05 637.65Q197.8 636.85 197.1 636.6Z" />
            <path fill="#8BC97E" stroke="none"
                d="M197 644.9Q195.6 645.5 194.95 645.9L194.95 657.3Q195.25 658.4 196.25 658.55 196.55 658.6 196.8 658.55 197.75 658.35 198.05 657.3L198.1 657 198.1 644.7 198.05 644.4 197 644.9Z" />
            <animate attributeName="display" fill="freeze" repeatCount="1" dur="1.5s"
                keyTimes="0;.978;1" values="none;inline;inline" />
        </g>
        <g id="Layer1_0_FILL">
            <path fill="#D8D8D8" fill-opacity="0" stroke="none"
                d="M40 608.2L40 731.15 335 731.15 335 608.2 40 608.2Z" />
            <path fill="#565454" stroke="none"
                d="M252.4 716Q252.9 715.4 252.9 714.8 252.9 714.2 252.4 713.6 251.8 713.1 251.2 713.1 250.5 713.1 250 713.6 249.5 714.1 249.5 714.8 249.5 715.5 250 716 250.45 716.5 251.2 716.5 251.9 716.5 252.4 716M277.65 712.35Q277.15 712.35 276.85 712.6 276.6 712.8 276.1 713.6L276.1 712.5 275 712.5 275 719.6 276.25 719.6 276.25 715.9Q276.25 715.05 276.45 714.5 276.5 714.1 276.9 713.8 277.15 713.6 277.6 713.6 278.1 713.6 278.45 713.85L278.9 712.75Q278.3 712.35 277.65 712.35M267.75 713.3Q267.35 713.8 267.2 714.55L268.4 714.7Q268.55 713.95 269 713.65 269.4 713.35 270.25 713.35 271.1 713.35 271.6 713.75 271.95 714.05 271.95 714.8L271.95 715.1Q271.2 715.35 269.8 715.5 269.4 715.55 268.75 715.7 268.15 715.9 267.85 716.1 267.5 716.3 267.25 716.8 267 717.2 267 717.75 267 718.6 267.65 719.2 268.2 719.75 269.45 719.75 270.2 719.75 270.75 719.55 271.25 719.4 272.05 718.75 272.15 719.35 272.3 719.6L273.55 719.6Q273.35 719.25 273.25 718.75 273.15 718.15 273.15 716.65L273.1 713.9Q273.05 713.45 272.75 713.1 272.4 712.75 271.9 712.55 271.35 712.35 270.4 712.35 269.55 712.35 268.8 712.6 268.15 712.8 267.75 713.3M268.95 716.75Q269.3 716.55 270 716.5L271.95 716.05 271.95 716.5Q271.95 717.3 271.75 717.7 271.55 718.15 270.95 718.5 270.45 718.85 269.7 718.85 269.1 718.85 268.65 718.5 268.3 718.2 268.3 717.7 268.3 717.4 268.45 717.15 268.55 716.95 268.95 716.75M265.6 711.3Q265.3 710.75 264.85 710.35 264.15 709.95 263.6 709.9L258.45 709.8 258.45 719.6 259.7 719.6 259.7 715.6 262.25 715.6Q264.4 715.6 265.1 714.75 265.9 713.95 265.9 712.65 265.9 711.9 265.6 711.3M264.25 711.6Q264.6 712.15 264.6 712.7 264.6 713.55 264.05 714 263.55 714.45 262.25 714.45L259.7 714.45 259.7 710.95 263.45 711.05Q263.9 711.2 264.25 711.6M297.75 712.6Q297 712.85 296.7 713.3 296.3 713.8 296.15 714.55L297.35 714.7Q297.5 713.95 297.95 713.65 298.35 713.35 299.2 713.35 300.05 713.35 300.55 713.75 300.9 714.05 300.9 714.8L300.9 715.1Q300.15 715.35 298.75 715.5L297.65 715.7Q297.05 715.9 296.8 716.1 296.45 716.3 296.2 716.8 295.95 717.1 295.95 717.75 295.95 718.6 296.55 719.2 297.15 719.75 298.35 719.75 299.15 719.75 299.7 719.55 300.25 719.35 301 718.75 301 719.2 301.25 719.6L302.5 719.6Q302.3 719.25 302.2 718.75 302.1 718.15 302.1 716.65L302.05 713.9Q301.85 713.3 301.65 713.1 301.4 712.8 300.85 712.55 300.3 712.35 299.35 712.35 298.5 712.35 297.75 712.6M297.25 717.7Q297.25 717.4 297.4 717.15 297.5 716.9 297.85 716.75 298.2 716.55 298.9 716.5 300.2 716.3 300.9 716.05L300.9 716.5Q300.9 717.1 300.7 717.7 300.4 718.2 299.9 718.5 299.4 718.85 298.65 718.85 298.05 718.85 297.6 718.5 297.25 718.2 297.25 717.7M285.2 712.5L283.65 712.5 280.8 715.4 280.8 709.8 279.6 709.8 279.6 719.6 280.8 719.6 280.8 716.8 281.65 716 284 719.6 285.5 719.6 282.5 715.15 285.2 712.5M286.85 712.5L285.6 712.5 287.75 719.6 289 719.6 290.45 714.15 291.85 719.6 293.1 719.6 295.35 712.5 294.15 712.5 292.55 718 291.1 712.5 289.9 712.5 288.4 718.15 286.85 712.5M309.8 712.5L308.6 712.5 307.1 716.65Q306.7 717.6 306.6 718.25L304.6 712.5 303.3 712.5 306 719.6 305.9 719.9Q305.55 720.75 305.5 720.8 305.35 721.05 305.1 721.2 304.95 721.3 304.45 721.3 304.05 721.3 303.8 721.2L303.9 722.35Q304.35 722.5 304.7 722.5 305.25 722.5 305.7 722.2 306.1 721.95 306.4 721.35 306.55 721.15 307.1 719.75L309.8 712.5M171.15 714.8Q171.15 714.2 170.65 713.6 170.05 713.1 169.45 713.1 168.75 713.1 168.25 713.6 167.75 714.1 167.75 714.8 167.75 715.5 168.25 716 168.7 716.5 169.45 716.5 170.15 716.5 170.65 716 171.15 715.4 171.15 714.8M181.15 693.35L179.95 693.35 179.95 694.75 181.15 694.75 181.15 693.35M181.15 696.05L179.95 696.05 179.95 703.15 181.15 703.15 181.15 696.05M178 696.1Q178 695.3 177.55 694.55 177.1 693.85 176.25 693.55 175.5 693.2 174.3 693.2 173.35 693.2 172.5 693.5 171.6 693.95 171.3 694.5 170.85 695.2 170.85 695.9 170.85 696.5 171.2 697.1 171.65 697.75 172.25 698 172.8 698.3 174.15 698.65L175.9 699.1Q176.5 699.35 176.8 699.7 177.05 700.05 177.05 700.5 177.05 700.95 176.8 701.35 176.5 701.7 175.95 701.95 175.4 702.15 174.6 702.15 173.85 702.15 173.1 701.9 172.45 701.6 172.15 701.1 171.9 700.75 171.7 699.9L170.5 700Q170.5 700.95 171.05 701.75 171.6 702.6 172.45 702.95 173.4 703.35 174.7 703.35 175.65 703.35 176.55 702.95 177.4 702.6 177.85 701.85 178.3 701.2 178.3 700.4 178.3 699.65 177.9 699 177.5 698.4 176.65 698 176.15 697.75 174.45 697.35 172.9 697.05 172.5 696.65 172.1 696.35 172.1 695.8 172.1 695.2 172.65 694.75 173.1 694.35 174.4 694.35 175.5 694.35 176.1 694.8 176.7 695.3 176.75 696.2L178 696.1M188.35 709.8L187.15 709.8 187.15 719.6 188.35 719.6 188.35 709.8M190.75 713.35Q189.8 714.4 189.8 716.1 189.8 717.75 190.75 718.8 191.65 719.75 193.2 719.75 194.45 719.75 195.25 719.15 196.05 718.5 196.35 717.5L195.1 717.3Q194.85 718.05 194.35 718.45 193.85 718.8 193.2 718.8 192.4 718.8 191.75 718.15 191.1 717.5 191.05 716.35L196.35 716.35 196.35 716.05Q196.35 714.3 195.45 713.3 194.55 712.35 193.15 712.35 191.6 712.35 190.75 713.35M191.15 715.35Q191.15 714.5 191.75 713.9 192.3 713.35 193.15 713.35 194.1 713.35 194.65 714.05 195 714.5 195.1 715.35L191.15 715.35M184.55 710.95Q183.95 710.3 183.2 710 182.35 709.65 181.25 709.65 179.8 709.65 178.65 710.25 177.55 710.85 176.95 712.1 176.35 713.3 176.35 714.75 176.35 716.25 176.95 717.35 177.55 718.55 178.75 719.15 179.95 719.8 181.35 719.8 182.35 719.8 183.45 719.4 184.5 719 185.4 718.25L185.4 714.6 181.25 714.6 181.25 715.75 184.15 715.75 184.15 717.6Q183.85 717.85 182.95 718.3 182.15 718.6 181.3 718.6 180.35 718.6 179.45 718.2 178.6 717.8 178.15 716.85 177.7 716.05 177.7 714.65 177.7 713.55 178.05 712.7 178.3 712.05 178.7 711.75 179.05 711.3 179.7 711 180.45 710.75 181.25 710.75 181.95 710.75 182.6 711 183.25 711.25 183.55 711.7 183.9 712.1 184.1 712.85L185.25 712.55Q185.05 711.6 184.55 710.95M188.3 696.75Q188.1 696.4 187.5 696.15 187.05 695.9 186.3 695.9 184.9 695.9 184.05 697.05L184.05 696.05 182.95 696.05 182.95 703.15 184.2 703.15 184.2 699.3Q184.2 697.85 184.75 697.45 185.25 696.95 186.05 696.95 186.55 696.95 186.9 697.15 187.25 697.35 187.4 697.75 187.55 698.15 187.55 698.85L187.55 703.15 188.75 703.15 188.7 697.6Q188.5 697 188.3 696.75M195.3 696.05L195.3 696.9Q194.45 695.9 193.2 695.9 192.3 695.9 191.55 696.35 190.85 696.9 190.5 697.7 190.15 698.45 190.15 699.55 190.15 701.1 190.95 702.1 191.7 703.15 193.2 703.15 194.4 703.15 195.15 702.25 195.2 703.25 195.1 703.8 194.95 704.35 194.45 704.7 194.05 705.05 193.2 705.05 192.35 705.05 191.95 704.7 191.6 704.45 191.55 703.95L190.35 703.75Q190.35 704.9 191.15 705.5 191.95 706.05 193.2 706.05 194.2 706.05 195 705.65 195.7 705.3 196.05 704.55 196.4 703.9 196.4 702.2L196.4 696.05 195.3 696.05M193.3 696.9Q194.1 696.9 194.7 697.55 195.25 698.15 195.25 699.5 195.25 700.95 194.7 701.55 194.2 702.15 193.3 702.15 192.45 702.15 191.95 701.5 191.35 700.9 191.35 699.5 191.35 698.25 191.95 697.55 192.45 696.9 193.3 696.9M217.6 712.55Q217.05 712.35 216.1 712.35 215.25 712.35 214.5 712.6 213.8 712.8 213.4 713.3 213.05 713.7 212.9 714.55L214.05 714.7Q214.3 713.95 214.65 713.65 215.1 713.35 215.9 713.35 216.8 713.35 217.3 713.75 217.65 714.1 217.65 714.8L217.65 715.1Q216.75 715.35 215.5 715.5L214.4 715.7Q213.8 715.9 213.55 716.1 213.25 716.3 212.9 716.8 212.7 717.15 212.7 717.75 212.7 718.6 213.3 719.2 213.9 719.75 215.1 719.75 215.9 719.75 216.45 719.55 217 719.35 217.75 718.75 217.75 719.1 217.95 719.6L219.25 719.6Q218.95 719.1 218.9 718.75L218.8 713.9Q218.6 713.3 218.4 713.1 218.15 712.8 217.6 712.55M214.15 717.15Q214.25 716.9 214.6 716.75 214.95 716.55 215.65 716.5 216.95 716.3 217.65 716.05L217.65 716.5Q217.65 717.1 217.45 717.7 217.15 718.2 216.65 718.5 216.15 718.85 215.4 718.85 214.8 718.85 214.35 718.5 213.95 718.2 213.95 717.7 213.95 717.35 214.15 717.15M206 713.35Q205.05 714.4 205.05 716.1 205.05 717.85 206 718.8 206.9 719.75 208.45 719.75 209.7 719.75 210.5 719.15 211.3 718.5 211.6 717.5L210.35 717.3Q210.1 718.05 209.6 718.45 209.1 718.8 208.45 718.8 207.6 718.8 206.95 718.15 206.35 717.5 206.3 716.35L211.6 716.35 211.6 716.05Q211.6 714.3 210.7 713.3 209.8 712.35 208.4 712.35 206.85 712.35 206 713.35M206.4 715.35Q206.4 714.5 207 713.9 207.55 713.35 208.4 713.35 209.35 713.35 209.9 714.05 210.25 714.5 210.35 715.35L206.4 715.35M203.55 714.05Q203.5 713.7 203.2 713.2 202.9 712.85 202.35 712.55 201.9 712.35 201.2 712.35 199.7 712.35 198.95 713.5L198.95 712.5 197.85 712.5 197.85 719.6 199.05 719.6 199.05 715.75Q199.05 714.4 199.6 713.85 200.2 713.4 200.95 713.4 201.45 713.4 201.8 713.6 202.15 713.9 202.3 714.2L202.4 715.3 202.4 719.6 203.6 719.6 203.55 714.05M202.75 698.35L202.75 698.65Q201.95 698.9 200.6 699.05L199.55 699.25Q198.95 699.45 198.65 699.65 198.3 699.85 198.05 700.35 197.8 700.75 197.8 701.3 197.8 702.15 198.45 702.75 199 703.3 200.25 703.3 201 703.3 201.55 703.1 202.05 702.95 202.85 702.3 202.95 702.9 203.1 703.15L204.35 703.15Q204.15 702.8 204.05 702.3 203.95 701.7 203.95 700.2L203.9 697.45Q203.85 697 203.55 696.65 203.2 696.3 202.7 696.1 202.15 695.9 201.2 695.9 200.35 695.9 199.6 696.15 198.95 696.35 198.55 696.85 198.15 697.35 198 698.1L199.2 698.25Q199.35 697.5 199.8 697.2 200.2 696.9 201.05 696.9 201.9 696.9 202.4 697.3 202.75 697.6 202.75 698.35M202.75 700.05Q202.75 700.85 202.55 701.25 202.4 701.65 201.75 702.1 201.25 702.4 200.55 702.4 199.9 702.4 199.45 702.05 199.1 701.75 199.1 701.25 199.1 700.95 199.25 700.7 199.35 700.5 199.75 700.3 200.1 700.1 200.8 700.05 201.75 699.95 202.75 699.6L202.75 700.05M209 695.9Q208.4 695.9 207.8 696.15 207.25 696.5 206.95 697L206.95 696.05 205.85 696.05 205.85 705.9 207.05 705.9 207.05 702.45Q207.35 702.85 207.85 703.05 208.25 703.3 208.9 703.3 209.75 703.3 210.5 702.85 211.2 702.4 211.6 701.5 212 700.75 212 699.55 212 698.45 211.65 697.7 211.3 696.9 210.6 696.35 209.95 695.9 209 695.9M208.9 696.85Q209.7 696.85 210.2 697.5 210.8 698.2 210.8 699.55 210.8 701 210.2 701.65 209.6 702.35 208.85 702.35 208.05 702.35 207.5 701.7 206.95 701.1 206.95 699.65 206.95 698.35 207.5 697.55 208.1 696.85 208.9 696.85M216.35 695.9Q214.95 695.9 214.1 696.7 213 697.65 213 699.6 213 701.45 213.95 702.35 214.85 703.3 216.35 703.3 217.4 703.3 218.05 702.9 218.9 702.45 219.25 701.65 219.65 701 219.65 699.5 219.65 697.85 218.75 696.85 217.8 695.9 216.35 695.9M214.85 697.55Q215.45 696.9 216.35 696.9 217.25 696.9 217.85 697.55 218.45 698.25 218.45 699.55 218.45 701 217.85 701.65 217.25 702.35 216.35 702.35 215.45 702.35 214.85 701.65 214.25 701 214.25 699.6 214.25 698.25 214.85 697.55M242.8 712.6Q242.3 712.35 241.35 712.35 240.75 712.35 240.3 712.5 239.7 712.7 239.55 712.85 239.2 713.05 238.95 713.5 238.7 714 238.7 714.4 238.7 714.9 239 715.35 239.2 715.75 239.75 716 240.3 716.3 241.6 716.6 242.45 716.8 242.85 717 243.2 717.25 243.2 717.65 243.2 718.05 242.8 718.45 242.3 718.8 241.55 718.8 240.8 718.8 240.25 718.4 239.85 718.05 239.7 717.3L238.5 717.5Q238.75 718.6 239.45 719.2 240.15 719.75 241.55 719.75 242.3 719.75 243.05 719.5 243.75 719.2 244.05 718.65 244.4 718.15 244.4 717.5 244.4 716.8 244.15 716.5 243.85 716.05 243.35 715.85L240.5 715Q240.2 714.85 240.05 714.65 239.9 714.5 239.9 714.25 239.9 713.9 240.25 713.6 240.55 713.35 241.45 713.35 242.15 713.35 242.5 713.65 242.95 714 243 714.5L244.15 714.35Q244.05 713.65 243.75 713.25 243.45 712.8 242.8 712.6M229.5 709.8L228.3 709.8 228.3 719.6 229.5 719.6 229.5 709.8M226.5 712.5L225.4 712.5 225.4 713.35Q224.55 712.35 223.35 712.35 222.4 712.35 221.7 712.8 221 713.25 220.6 714.15 220.25 714.9 220.25 716 220.25 717.55 221.05 718.55 221.9 719.6 223.3 719.6 224.5 719.6 225.3 718.7L225.2 720.25Q225.05 720.85 224.6 721.15 224.2 721.5 223.3 721.5 222.45 721.5 222.05 721.15 221.7 720.9 221.65 720.35L220.5 720.2Q220.5 721.4 221.25 721.9 222 722.5 223.3 722.5 224.3 722.5 225.1 722.1 225.85 721.65 226.2 721 226.5 720.35 226.5 718.65L226.5 712.5M223.4 713.35Q224.3 713.35 224.8 714 225.4 714.7 225.4 715.95 225.4 717.3 224.85 717.95 224.25 718.6 223.45 718.6 222.55 718.6 222.05 717.95 221.5 717.3 221.5 715.95 221.5 714.7 222.05 714 222.65 713.35 223.4 713.35M231.9 713.35Q231 714.35 231 716.1 231 717.85 231.9 718.8 232.8 719.75 234.35 719.75 235.6 719.75 236.4 719.15 237.2 718.55 237.5 717.5L236.25 717.3Q236 718.05 235.5 718.45 235 718.8 234.35 718.8 233.55 718.8 232.9 718.15 232.25 717.5 232.2 716.35L237.5 716.35 237.55 716.05Q237.55 714.3 236.65 713.3 235.75 712.35 234.3 712.35 232.75 712.35 231.9 713.35M235.8 714.05Q236.15 714.5 236.25 715.35L232.3 715.35Q232.4 714.4 232.9 713.9 233.45 713.35 234.3 713.35 235.25 713.35 235.8 714.05M223.65 697.15Q224 697.15 224.5 697.4L224.95 696.3Q224.35 695.9 223.7 695.9 223.3 695.9 222.9 696.15 222.65 696.35 222.15 697.15L222.15 696.05 221.05 696.05 221.05 703.15 222.25 703.15 222.25 699.45Q222.25 698.7 222.5 698.05 222.55 697.65 222.9 697.4 223.2 697.15 223.65 697.15M230.9 696.85Q230 695.9 228.55 695.9 227.15 695.9 226.15 696.9 225.25 697.9 225.25 699.65 225.25 701.4 226.15 702.35 227.05 703.3 228.65 703.3 229.9 703.3 230.65 702.7 231.45 702.1 231.75 701.05L230.5 700.85Q230.3 701.6 229.75 702 229.25 702.35 228.65 702.35 227.75 702.35 227.15 701.7 226.6 701.15 226.5 699.9L231.8 699.9 231.8 699.6Q231.8 697.85 230.9 696.85M228.6 696.9Q229.55 696.9 230.05 697.6 230.4 698 230.55 698.95L226.55 698.95Q226.65 697.95 227.2 697.45 227.7 696.9 228.6 696.9M93.7 715.75Q93.7 714.35 94.25 713.85 94.8 713.4 95.6 713.4 96.15 713.4 96.4 713.6 96.75 713.8 96.9 714.2 97.05 714.6 97.05 715.3L97.05 719.6 98.25 719.6 98.2 714.05Q98.05 713.5 97.8 713.2 97.65 712.9 97 712.55 96.55 712.35 95.85 712.35 94.4 712.35 93.55 713.5L93.55 712.5 92.5 712.5 92.5 719.6 93.7 719.6 93.7 715.75M89.4 712.5L89.4 716.3Q89.4 717.3 89.2 717.7 88.95 718.2 88.5 718.45 88.05 718.75 87.5 718.75 87 718.75 86.6 718.45 86.25 718.25 86.1 717.7L86.05 712.5 84.85 712.5 84.9 718.05Q85.1 718.7 85.3 718.9 85.5 719.25 86.1 719.55 86.55 719.75 87.25 719.75 88.7 719.75 89.5 718.55L89.5 719.6 90.6 719.6 90.6 712.5 89.4 712.5M118.05 709.8L116.85 709.8 116.85 719.6 118.05 719.6 118.05 709.8M121.1 712.5L119.9 712.5 119.9 719.6 121.1 719.6 121.1 712.5M119.9 711.2L121.1 711.2 121.1 709.8 119.9 709.8 119.9 711.2M109.2 713.95L109.2 710.95 115 710.95 115 709.8 107.9 709.8 107.9 719.6 115.2 719.6 115.2 718.45 109.2 718.45 109.2 715.1 114.65 715.1 114.65 713.95 109.2 713.95M102.75 713.45L102.75 712.5 101.5 712.5 101.5 710 100.35 710.75 100.35 712.5 99.45 712.5 99.45 713.45 100.35 713.45 100.35 717.55Q100.35 718.55 100.45 718.95 100.55 719.25 101 719.5 101.25 719.7 102 719.7L102.9 719.6 102.75 718.55 102.2 718.6 101.8 718.5Q101.7 718.45 101.6 718.25 101.5 718.05 101.5 717.6L101.5 713.45 102.75 713.45M131.2 712.6Q130.55 712.8 130.15 713.3 129.75 713.8 129.6 714.55L130.8 714.7Q130.95 713.95 131.4 713.65 131.8 713.35 132.65 713.35 133.5 713.35 134 713.75 134.35 714.05 134.35 714.8L134.35 715.1Q133.6 715.35 132.2 715.5L131.1 715.7Q130.5 715.9 130.25 716.1 129.9 716.3 129.65 716.8 129.4 717.2 129.4 717.75 129.4 718.6 130.05 719.2 130.6 719.75 131.85 719.75 132.6 719.75 133.15 719.55 133.7 719.35 134.45 718.75 134.55 719.35 134.7 719.6L135.95 719.6Q135.75 719.25 135.65 718.75 135.55 718.15 135.55 716.65L135.5 713.9Q135.45 713.45 135.15 713.1 134.85 712.8 134.3 712.55 133.75 712.35 132.8 712.35 131.95 712.35 131.2 712.6M130.85 717.15Q131 716.9 131.35 716.75 131.7 716.55 132.4 716.5L134.35 716.05 134.35 716.5Q134.35 717.3 134.15 717.7 133.95 718.15 133.35 718.5 132.85 718.85 132.1 718.85 131.5 718.85 131.05 718.5 130.7 718.2 130.7 717.7 130.7 717.4 130.85 717.15M122.6 712.5L122.6 713.5 126.85 713.45 122.3 718.65 122.3 719.6 128.6 719.6 128.6 718.55 123.8 718.65 128.4 713.3 128.4 712.5 122.6 712.5M157.7 715.7Q157.7 714.85 157.9 714.4 158.05 714 158.55 713.65 158.95 713.4 159.55 713.4 160.3 713.4 160.65 713.8 161.05 714.15 161.05 715.1L161.05 719.6 162.25 719.6 162.25 715.1Q162.25 714 162 713.5 161.8 713 161.2 712.65 160.6 712.35 159.8 712.35 158.5 712.35 157.7 713.3L157.7 709.8 156.5 709.8 156.5 719.6 157.7 719.6 157.7 715.7M154.1 710L152.9 710.75 152.9 712.5 152 712.5 152 713.45 152.9 713.45 152.9 717.55Q152.9 718.65 153.05 718.95 153.2 719.3 153.55 719.5 153.9 719.7 154.55 719.7L155.5 719.6 155.3 718.55 154.75 718.6 154.35 718.5Q154.25 718.45 154.15 718.25L154.1 717.6 154.1 713.45 155.3 713.45 155.3 712.5 154.1 712.5 154.1 710M145.55 713.35Q144.65 714.35 144.65 716.1 144.65 717.85 145.55 718.8 146.45 719.75 148.05 719.75 149.3 719.75 150.05 719.15 150.85 718.55 151.15 717.5L149.9 717.3Q149.7 718.05 149.15 718.45 148.65 718.8 148.05 718.8 147.2 718.8 146.55 718.15 146 717.6 145.9 716.35L151.2 716.35 151.2 716.05Q151.2 714.3 150.3 713.3 149.4 712.35 147.95 712.35 146.5 712.35 145.55 713.35M145.95 715.35Q146.05 714.4 146.6 713.9 147.1 713.35 148 713.35 148.95 713.35 149.45 714.05 149.9 714.55 149.95 715.35L145.95 715.35M142.8 713.35Q142.45 712.9 141.8 712.6 141.15 712.35 140.55 712.35 139.4 712.35 138.65 713.3L138.65 709.8 137.4 709.8 137.4 719.6 138.55 719.6 138.55 718.7Q139.25 719.75 140.5 719.75 141.85 719.75 142.7 718.75 143.6 717.8 143.6 715.95 143.6 715.25 143.35 714.5 143.2 713.85 142.8 713.35M141.8 714Q142.35 714.7 142.35 716.05 142.35 717.4 141.8 718.1 141.2 718.8 140.4 718.8 139.5 718.8 138.85 717.85 138.55 717.25 138.55 716 138.55 714.7 139.1 714 139.7 713.35 140.45 713.35 141.3 713.35 141.8 714M145.05 693.35L143.75 693.35 143.75 703.15 145.05 703.15 145.05 693.35M153.75 693.35L153.75 697.4 148.65 697.4 148.65 693.35 147.35 693.35 147.35 703.15 148.65 703.15 148.65 698.55 153.75 698.55 153.75 703.15 155.05 703.15 155.05 693.35 153.75 693.35M158.55 693.35L157.25 693.35 157.25 703.15 158.55 703.15 158.55 698.55 163.65 698.55 163.65 703.15 164.95 703.15 164.95 693.35 163.65 693.35 163.65 697.4 158.55 697.4 158.55 693.35M75.3 709.8L73.55 709.8 70.85 717.75Q70.7 718 70.7 718.2L67.9 709.8 65.95 709.8 65.95 719.6 67.2 719.6 67.2 711.25 70 719.6 71.2 719.6 74.05 711.4 74.05 719.6 75.3 719.6 75.3 709.8M80.1 712.35Q78.75 712.35 77.9 713.15 76.8 714.05 76.8 716.05 76.8 717.9 77.7 718.8 78.6 719.75 80.1 719.75 81.1 719.75 81.85 719.35 82.6 718.9 83.05 718.1 83.45 717.3 83.45 715.95 83.45 714.25 82.5 713.3 81.6 712.35 80.1 712.35M78.05 716.05Q78.05 714.7 78.6 714 79.2 713.35 80.1 713.35 81 713.35 81.6 714 82.2 714.7 82.2 716 82.2 717.45 81.6 718.1 81 718.8 80.1 718.8 79.2 718.8 78.6 718.1 78.05 717.4 78.05 716.05Z" />
            <path fill="#5DBAE9" stroke="none"
                d="M187.1 624.8Q187.1 624 186.45 623.5 185.7 622.95 184.8 623.35 184.05 623.75 184.05 624.95L184.05 641.3Q183.95 641.45 183.95 641.75L183.95 644.4Q183.95 644.7 184.05 644.8L184.05 668.2Q184.15 668.95 184.75 669.35 185.5 669.85 186.3 669.35 187.1 668.85 187.1 667.9L187.1 650.05Q187.1 649.55 187.6 649.25L194.7 645.95 194.95 645.9 197.85 644.55 197.95 644.45Q198.7 643.95 199.65 643.65 199.75 643.7 199.75 644L199.75 660.3 199.8 660.7Q200.05 661.8 201 661.9 201.3 661.95 201.55 661.9 202.55 661.65 202.8 660.65L202.8 640.75Q202.55 639.9 201.8 639.65 201.1 639.35 200.3 639.75L197.95 640.9 197.85 640.85 187.55 645.7Q187.3 645.85 187.25 645.8 187.2 645.8 187.2 645.5L187.2 640.2Q187.2 639.95 187.1 639.85L187.1 624.8Z" />
            <path fill="#8BC97D" stroke="none"
                d="M181.9 641.6L181.9 620.5 181.8 620.35Q181.35 619.15 180.05 619.25 179.5 619.25 179.05 619.6 178.55 619.95 178.45 620.5L178.45 664.35Q178.55 664.9 179.05 665.3 179.6 665.7 180.15 665.65 181.5 665.5 181.85 664.4L181.9 664 181.9 646Q181.9 645.65 181.95 645.6 182.55 645.25 183.95 644.75L183.95 641.25 182 642Q181.9 642 181.9 641.6Z" />
            <path fill="#A599CA" stroke="none"
                d="M176.05 618.6Q176.05 617.2 174.65 616.85 174.5 616.8 174.35 616.85 173.7 616.9 173.3 617.4 172.9 617.85 172.9 618.5L172.95 661.85Q173.05 662.75 173.75 663.05 174.6 663.45 175.35 663 176.05 662.5 176.05 661.55L176.05 618.6Z" />
            <path fill="#8BC97E" stroke="none"
                d="M197.1 636.6Q196.45 636.35 195.75 636.65L187.1 640.35 187.1 643.55Q187.25 643.6 187.45 643.5L193.25 641.05Q194.2 640.6 194.85 640.4L194.85 642.3Q194.85 642.6 195 642.65L195.75 642.35Q197.85 641.4 198.1 641.3L198.05 637.65Q197.8 636.85 197.1 636.6Z" />
            <path fill="#8BC97E" stroke="none"
                d="M197 644.9Q195.6 645.5 194.95 645.9L194.95 657.3Q195.25 658.4 196.25 658.55 196.55 658.6 196.8 658.55 197.75 658.35 198.05 657.3L198.1 657 198.1 644.7 198.05 644.4 197 644.9Z" />
            <animate attributeName="display" fill="freeze" repeatCount="1" dur="1.5s"
                keyTimes="0;.978;1" values="inline;none;none" />
        </g>
    </g>
</svg>